<svg width="124" height="124" viewBox="0 0 124 124" fill="none" xmlns="http://www.w3.org/2000/svg">
<rect width="124" height="123.35" rx="61.675" fill="#454545"/>
<path d="M13.5734 50.9633L19.9469 53.1623L20.1417 57.9393L13.9627 60.5083L13.7686 55.7492L18.8706 53.6247L13.6081 51.8147L13.5734 50.9633Z" fill="white"/>
<path d="M14.066 49.6959L15.0175 45.0929L21.2275 46.0207L20.2761 50.6236L14.066 49.6959Z" fill="white"/>
<path d="M25.8049 36.2205L24.5157 38.8252L21.3724 39.9339L23.5767 40.7224L21.46 44.9993L15.5479 42.8844L18.6554 36.6058C18.8172 36.2788 19.0159 35.9777 19.2516 35.7025C19.4899 35.4218 19.7462 35.1918 20.0206 35.0124C20.2976 34.8276 20.5874 34.7041 20.8898 34.642C21.1923 34.5799 21.4871 34.6002 21.7743 34.7029C22.0502 34.8016 22.2659 34.9482 22.4215 35.1426C22.5741 35.3297 22.6787 35.5469 22.7353 35.7942C22.7862 36.0395 22.7943 36.3043 22.7597 36.5884C22.7252 36.8725 22.6627 37.1593 22.5725 37.4487L25.8049 36.2205ZM19.108 37.7802C19.0742 37.7681 19.0366 37.7704 18.9952 37.7871C18.9565 37.7985 18.9278 37.8229 18.9092 37.8605L18.4079 38.8734L20.6207 39.665L21.122 38.652C21.1645 38.5663 21.1406 38.5073 21.0506 38.4751L19.108 37.7802Z" fill="white"/>
<path d="M27.6314 25.6549L28.2846 26.098L26.6763 27.8117L31.2193 30.8934L28.0028 34.3207L23.4598 31.2389L21.8515 32.9526L21.1983 32.5095L27.6314 25.6549Z" fill="white"/>
<path d="M35.1126 20.7494L39.1513 18.3625L41.6213 21.3831C41.8295 21.6377 41.9703 21.9081 42.0439 22.1942C42.1175 22.4803 42.1298 22.7614 42.0807 23.0376C42.0317 23.3138 41.9208 23.5751 41.748 23.8214C41.5804 24.0646 41.355 24.2699 41.0719 24.4373L35.7436 27.5864C35.4605 27.7537 35.153 27.8633 34.8213 27.9152C34.4947 27.964 34.1706 27.9599 33.849 27.9028C33.5274 27.8456 33.2217 27.7379 32.9319 27.5796C32.6383 27.4167 32.3874 27.2079 32.1792 26.9533L29.7149 23.9396L33.7458 21.5572L37.13 25.6958C37.1905 25.7699 37.262 25.7826 37.3444 25.7339L38.4718 25.0676C38.5027 25.0493 38.5208 25.0249 38.5263 24.9942C38.5331 24.9558 38.5233 24.9204 38.4968 24.888L35.1126 20.7494Z" fill="white"/>
<path d="M45.1768 22.8397L44.3564 23.0702L44.3784 16.5724L48.9811 15.2791L53.5533 20.486L48.9678 21.7744L48.08 20.7719L45.1785 21.5872L45.1768 22.8397ZM45.1861 20.769L47.509 20.1163L45.1894 17.4759L45.1861 20.769Z" fill="white"/>
<path d="M59.1572 13.8689L59.5931 19.3412L63.5154 19.1154L63.5781 19.9023L54.9722 20.3977L54.4744 14.1475L54.4833 14.147L54.4826 14.1381L59.1572 13.8689Z" fill="white"/>
<path d="M85.2988 18.2745L80.5984 23.3861L76.0275 22.0153L76.0638 19.8556L74.5068 21.5593L69.9273 20.1859L70.0482 13.7009L74.6191 15.0717L74.5223 20.4274L76.088 18.7263L76.1484 15.5304L80.7193 16.9012L80.6226 22.2568L84.4998 18.0349L85.2988 18.2745Z" fill="white"/>
<path d="M96.372 25.781C96.6358 25.9774 96.8378 26.205 96.978 26.4639C97.1182 26.7227 97.1974 26.9914 97.2156 27.2699C97.2339 27.5485 97.1904 27.8252 97.0852 28.1001C96.98 28.3751 96.8073 28.6292 96.567 28.8625L95.4924 29.906C95.2564 30.1352 94.9829 30.3143 94.672 30.4435C94.3653 30.5684 94.0463 30.6437 93.7149 30.6693C93.3877 30.6908 93.064 30.6595 92.7436 30.5756C92.4233 30.4917 92.1312 30.3516 91.8674 30.1552L86.773 26.3632C86.5134 26.1627 86.3112 25.9312 86.1662 25.6687C86.0261 25.4098 85.9469 25.1412 85.9286 24.8626C85.9104 24.5841 85.9538 24.3074 86.059 24.0324C86.1685 23.7533 86.3412 23.4992 86.5772 23.2701L87.6519 22.2265C87.8878 21.9974 88.1591 21.8204 88.4658 21.6954C88.7768 21.5662 89.0958 21.4909 89.4229 21.4695C89.7501 21.4481 90.0738 21.4793 90.3942 21.5632C90.7193 21.6507 91.0138 21.7926 91.2776 21.989L96.372 25.781ZM93.7808 24.9892C93.8065 24.9642 93.816 24.9345 93.8092 24.9C93.8114 24.8648 93.7958 24.8348 93.7622 24.8098L92.7333 24.0439C92.6997 24.0189 92.6602 24.0079 92.6147 24.0109C92.5784 24.0133 92.5473 24.027 92.5216 24.0519L89.3426 27.1389C89.3169 27.1639 89.3029 27.1939 89.3006 27.229C89.3074 27.2636 89.3276 27.2933 89.3612 27.3183L90.3902 28.0842C90.4237 28.1092 90.4587 28.1205 90.495 28.1181C90.5405 28.1151 90.5761 28.1012 90.6018 28.0762L93.7808 24.9892Z" fill="white"/>
<path d="M100.747 40.5249L99.0564 38.1606L99.9053 35.3638L97.8254 36.4385L95.0502 32.5564L100.629 29.6741L104.703 35.3732C104.915 35.67 105.08 35.9776 105.199 36.2961C105.321 36.6194 105.384 36.9265 105.388 37.2174C105.396 37.5132 105.338 37.783 105.214 38.0269C105.09 38.2708 104.892 38.4628 104.621 38.6028C104.361 38.7373 104.092 38.8032 103.813 38.8005C103.544 38.7999 103.275 38.7491 103.006 38.648C102.743 38.5443 102.487 38.4 102.238 38.2153C101.99 38.0306 101.756 37.8251 101.536 37.599L100.747 40.5249ZM103.316 35.0206C103.348 35.0042 103.368 34.9769 103.377 34.9389C103.39 34.9057 103.384 34.8721 103.36 34.838L102.702 33.9186L100.615 34.9973L101.272 35.9168C101.327 35.9946 101.398 36.0116 101.483 35.9677L103.316 35.0206Z" fill="white"/>
<path d="M108.829 44.4372L103.495 45.7352L104.748 49.4587L103.981 49.6453L101.231 41.4758L107.323 39.9933L107.326 40.0018L107.335 39.9996L108.829 44.4372Z" fill="white"/>
<path d="M104.076 58.5335L104.114 49.9493L110.393 49.9692L110.355 58.5534C110.354 58.8823 110.289 59.1901 110.163 59.4767C110.036 59.7693 109.864 60.0229 109.648 60.2375C109.432 60.4521 109.18 60.6217 108.892 60.7464C108.605 60.8711 108.293 60.9329 107.958 60.9318L106.461 60.9271C106.132 60.926 105.821 60.8622 105.528 60.7357C105.242 60.6092 104.992 60.438 104.777 60.2221C104.563 60.0061 104.394 59.7514 104.269 59.458C104.145 59.1706 104.084 58.8624 104.085 58.5335L104.076 58.5335ZM109.432 56.2272C109.474 56.2274 109.507 56.2125 109.531 56.1827C109.561 56.1589 109.576 56.129 109.576 56.0931L109.583 54.658L104.882 54.643L104.876 56.0782C104.876 56.1141 104.888 56.144 104.912 56.168C104.941 56.198 104.977 56.2131 105.019 56.2132L109.432 56.2272Z" fill="white"/>
<path d="M110.426 72.3865L104.053 70.1875L103.858 65.4104L110.037 62.8414L110.231 67.6005L105.129 69.725L110.391 71.535L110.426 72.3865Z" fill="white"/>
<path d="M109.933 73.6538L108.982 78.2568L102.772 77.329L103.723 72.726L109.933 73.6538Z" fill="white"/>
<path d="M98.1946 87.1292L99.4838 84.5245L102.627 83.4158L100.423 82.6272L102.54 78.3504L108.452 80.4653L105.344 86.7439C105.182 87.0708 104.984 87.3719 104.748 87.6472C104.51 87.9279 104.253 88.1579 103.979 88.3373C103.702 88.5221 103.412 88.6455 103.11 88.7077C102.807 88.7698 102.512 88.7495 102.225 88.6468C101.949 88.5481 101.734 88.4015 101.578 88.207C101.425 88.02 101.321 87.8028 101.264 87.5554C101.213 87.3101 101.205 87.0454 101.24 86.7613C101.274 86.4772 101.337 86.1904 101.427 85.9009L98.1946 87.1292ZM104.892 85.5695C104.925 85.5816 104.963 85.5793 105.004 85.5625C105.043 85.5512 105.072 85.5267 105.09 85.4892L105.592 84.4763L103.379 83.6847L102.877 84.6976C102.835 84.7834 102.859 84.8424 102.949 84.8746L104.892 85.5695Z" fill="white"/>
<path d="M96.3681 97.6948L95.7149 97.2517L97.3232 95.5381L92.7802 92.4563L95.9968 89.029L100.54 92.1108L102.148 90.3971L102.801 90.8403L96.3681 97.6948Z" fill="white"/>
<path d="M88.8869 102.6L84.8482 104.987L82.3783 101.967C82.1701 101.712 82.0292 101.442 81.9556 101.155C81.882 100.869 81.8697 100.588 81.9188 100.312C81.9678 100.036 82.0788 99.7746 82.2515 99.5283C82.4191 99.285 82.6445 99.0797 82.9277 98.9124L88.2559 95.7633C88.539 95.5959 88.8465 95.4863 89.1782 95.4345C89.5048 95.3856 89.8289 95.3898 90.1505 95.4469C90.4721 95.504 90.7779 95.6117 91.0677 95.7701C91.3613 95.933 91.6121 96.1418 91.8203 96.3964L94.2846 99.4101L90.2537 101.792L86.8696 97.6538C86.809 97.5798 86.7375 97.5671 86.6552 97.6157L85.5277 98.2821C85.4968 98.3003 85.4787 98.3248 85.4732 98.3555C85.4664 98.3939 85.4763 98.4292 85.5028 98.4616L88.8869 102.6Z" fill="white"/>
<path d="M78.8227 100.51L79.6431 100.28L79.6211 106.777L75.0184 108.071L70.4462 102.864L75.0317 101.575L75.9195 102.578L78.8211 101.762L78.8227 100.51ZM78.8135 102.581L76.4905 103.233L78.8101 105.874L78.8135 102.581Z" fill="white"/>
<path d="M64.8423 109.481L64.4064 104.009L60.4841 104.234L60.4214 103.447L69.0273 102.952L69.5251 109.202L69.5162 109.203L69.5169 109.212L64.8423 109.481Z" fill="white"/>
<path d="M38.7007 105.075L43.4011 99.9636L47.972 101.334L47.9357 103.494L49.4927 101.79L54.0722 103.164L53.9513 109.649L49.3805 108.278L49.4772 102.922L47.9115 104.623L47.8511 107.819L43.2802 106.449L43.3769 101.093L39.4998 105.315L38.7007 105.075Z" fill="white"/>
<path d="M27.6275 97.5687C27.3637 97.3723 27.1617 97.1447 27.0215 96.8858C26.8814 96.6269 26.8022 96.3582 26.7839 96.0797C26.7657 95.8012 26.8091 95.5245 26.9143 95.2495C27.0195 94.9746 27.1922 94.7205 27.4325 94.4872L28.5072 93.4436C28.7431 93.2145 29.0166 93.0354 29.3275 92.9062C29.6342 92.7812 29.9532 92.7059 30.2847 92.6803C30.6118 92.6589 30.9355 92.6902 31.2559 92.7741C31.5762 92.858 31.8683 92.9981 32.1322 93.1945L37.2265 96.9865C37.4861 97.187 37.6883 97.4185 37.8333 97.681C37.9735 97.9398 38.0527 98.2085 38.0709 98.487C38.0891 98.7655 38.0457 99.0423 37.9405 99.3172C37.831 99.5963 37.6583 99.8505 37.4223 100.08L36.3476 101.123C36.1117 101.352 35.8404 101.529 35.5337 101.654C35.2228 101.783 34.9037 101.859 34.5766 101.88C34.2494 101.902 33.9257 101.87 33.6054 101.786C33.2802 101.699 32.9857 101.557 32.7219 101.361L27.6275 97.5687ZM30.2187 98.3604C30.193 98.3854 30.1835 98.4152 30.1903 98.4497C30.1881 98.4848 30.2037 98.5149 30.2373 98.5399L31.2663 99.3058C31.2998 99.3308 31.3394 99.3418 31.3848 99.3388C31.4211 99.3364 31.4522 99.3227 31.4779 99.2977L34.6569 96.2108C34.6827 96.1858 34.6967 96.1557 34.6989 96.1206C34.6921 96.0861 34.6719 96.0564 34.6383 96.0314L33.6094 95.2655C33.5758 95.2405 33.5408 95.2292 33.5045 95.2315C33.459 95.2345 33.4235 95.2485 33.3977 95.2735L30.2187 98.3604Z" fill="white"/>
<path d="M23.253 82.8256L24.9431 85.1899L24.0942 87.9867L26.1742 86.912L28.9493 90.7942L23.3709 93.6764L19.2969 87.9773C19.0848 87.6805 18.9195 87.3729 18.8009 87.0545C18.6789 86.7311 18.6158 86.424 18.6115 86.1331C18.6038 85.8373 18.6619 85.5675 18.7858 85.3236C18.9097 85.0797 19.1072 84.8878 19.3781 84.7478C19.6384 84.6132 19.9078 84.5474 20.1862 84.5501C20.4558 84.5507 20.7249 84.6015 20.9935 84.7025C21.2569 84.8063 21.5128 84.9505 21.7612 85.1352C22.0097 85.3199 22.2438 85.5254 22.4637 85.7515L23.253 82.8256ZM20.6839 88.3299C20.652 88.3464 20.6315 88.3736 20.6223 88.4117C20.6096 88.4448 20.6155 88.4785 20.6398 88.5125L21.2971 89.432L23.385 88.3532L22.7277 87.4337C22.6721 87.3559 22.6018 87.3389 22.5167 87.3829L20.6839 88.3299Z" fill="white"/>
<path d="M15.1708 78.9125L20.5048 77.6145L19.2512 73.891L20.0181 73.7044L22.7687 81.8739L16.6764 83.3565L16.6736 83.348L16.6649 83.3501L15.1708 78.9125Z" fill="white"/>
<path d="M19.9235 64.8162L19.8858 73.4004L13.6068 73.3804L13.6445 64.7963C13.646 64.4674 13.7101 64.1596 13.837 63.873C13.9638 63.5804 14.1354 63.3268 14.3516 63.1122C14.5678 62.8976 14.8197 62.7279 15.1073 62.6033C15.3949 62.4786 15.7061 62.4168 16.041 62.4179L17.539 62.4226C17.8679 62.4237 18.1786 62.4874 18.471 62.6139C18.7575 62.7404 19.0079 62.9117 19.2223 63.1276C19.4366 63.3436 19.6059 63.5983 19.7302 63.8917C19.8545 64.1791 19.916 64.4873 19.9145 64.8162L19.9235 64.8162ZM14.5672 67.1224C14.5254 67.1223 14.4924 67.1371 14.4683 67.167C14.4383 67.1908 14.4233 67.2206 14.4231 67.2565L14.4168 68.6917L19.117 68.7066L19.1233 67.2714C19.1235 67.2356 19.1117 67.2056 19.0879 67.1816C19.0581 67.1516 19.0223 67.1366 18.9804 67.1364L14.5672 67.1224Z" fill="white"/>
<path d="M72.1384 68.3889L72.1384 51.5279L55.2774 51.5279" stroke="white" stroke-width="4.273" stroke-miterlimit="10" stroke-linecap="round" stroke-linejoin="round"/>
<path d="M48.5275 75.1389L71.9022 51.7641" stroke="white" stroke-width="4.273" stroke-miterlimit="10" stroke-linecap="round" stroke-linejoin="round"/>
</svg>
