<svg width="644" height="642" viewBox="0 0 644 642" fill="none" xmlns="http://www.w3.org/2000/svg">
<path d="M-57.92 6.216C-56.24 4.488 -54.248 3.12 -51.944 2.112C-49.64 1.104 -47.192 0.599997 -44.6 0.599997H5.872C6.44801 0.599997 7.02401 0.623996 7.60001 0.671996C8.176 0.719998 8.728 0.791998 9.25601 0.887997C11.128 1.272 12.88 1.944 14.512 2.904C16.192 3.816 17.68 4.968 18.976 6.36C20.32 7.704 21.448 9.24 22.36 10.968C23.272 12.648 23.896 14.424 24.232 16.296H-13.136V8.088C-13.136 7.32 -13.52 6.936 -14.288 6.936H-24.584C-24.92 6.936 -25.208 7.056 -25.448 7.296C-25.64 7.536 -25.736 7.8 -25.736 8.088V21.48C-25.736 22.248 -25.352 22.632 -24.584 22.632H24.52C24.52 29.208 24.52 32.616 24.52 32.856C24.52 35.112 23.992 37.368 22.936 39.624C21.88 41.832 20.56 43.752 18.976 45.384C17.248 47.112 15.232 48.48 12.928 49.488C10.672 50.496 8.224 51 5.58401 51H-45.104C-46.352 51 -47.456 50.904 -48.416 50.712C-50.288 50.328 -52.064 49.68 -53.744 48.768C-55.424 47.808 -56.936 46.656 -58.28 45.312C-59.576 43.92 -60.68 42.384 -61.592 40.704C-62.456 38.976 -63.056 37.176 -63.392 35.304H-25.736V43.512C-25.736 44.28 -25.352 44.664 -24.584 44.664H-14.288C-13.952 44.664 -13.688 44.544 -13.496 44.304C-13.256 44.064 -13.136 43.8 -13.136 43.512V30.12C-13.136 29.352 -13.52 28.968 -14.288 28.968H-63.464V18.744C-63.32 16.296 -62.768 14.016 -61.808 11.904C-60.848 9.744 -59.552 7.848 -57.92 6.216ZM80.3914 0.599997H118.047V31.92C118.047 34.56 117.543 37.032 116.535 39.336C115.527 41.64 114.159 43.656 112.431 45.384C110.703 47.112 108.663 48.48 106.311 49.488C104.007 50.496 101.535 51 98.8954 51H49.2154C46.5754 51 44.0794 50.496 41.7274 49.488C39.4234 48.48 37.4074 47.112 35.6794 45.384C33.9514 43.656 32.5834 41.64 31.5754 39.336C30.5674 36.984 30.0634 34.488 30.0634 31.848V0.599997H67.6474V43.512C67.6474 44.28 68.0314 44.664 68.7994 44.664H79.3114C79.5994 44.664 79.8394 44.568 80.0314 44.376C80.2714 44.136 80.3914 43.848 80.3914 43.512V0.599997ZM162.59 32.136V51H124.286V0.599997H180.734C183.95 0.599997 186.926 0.983997 189.662 1.752C192.446 2.52 194.846 3.6 196.862 4.992C198.878 6.336 200.462 7.992 201.614 9.96C202.766 11.88 203.342 14.016 203.342 16.368C203.342 18.72 202.766 20.88 201.614 22.848C200.462 24.768 198.902 26.424 196.934 27.816C195.014 29.208 192.734 30.288 190.094 31.056C187.502 31.776 184.742 32.136 181.814 32.136H162.59ZM162.59 7.008V25.8H171.662C171.95 25.8 172.214 25.704 172.454 25.512C172.694 25.272 172.814 24.984 172.814 24.648V8.088C172.814 7.8 172.694 7.56 172.454 7.368C172.214 7.128 171.95 7.008 171.662 7.008H162.59ZM275.886 0.599997V6.936H244.35V22.56H275.886V28.968H244.35V44.664H275.886V51H206.694V0.599997H275.886ZM362.099 51H338.771L321.779 32.208V51H283.475V0.599997H339.707C342.635 0.599997 345.467 0.959996 348.203 1.68C350.987 2.4 353.435 3.432 355.547 4.776C357.707 6.12 359.435 7.776 360.731 9.744C362.027 11.712 362.675 13.92 362.675 16.368C362.675 18.72 362.147 20.808 361.091 22.632C360.083 24.408 358.715 25.944 356.987 27.24C355.259 28.488 353.267 29.496 351.011 30.264C348.755 31.032 346.403 31.608 343.955 31.992L362.099 51ZM332.003 8.088C332.003 7.8 331.883 7.536 331.643 7.296C331.451 7.056 331.187 6.936 330.851 6.936H321.779V25.8H330.851C331.619 25.8 332.003 25.416 332.003 24.648V8.088ZM469.466 51H446.138L429.146 32.208V51H390.842V0.599997H447.074C450.002 0.599997 452.834 0.959996 455.57 1.68C458.354 2.4 460.802 3.432 462.914 4.776C465.074 6.12 466.802 7.776 468.098 9.744C469.394 11.712 470.042 13.92 470.042 16.368C470.042 18.72 469.514 20.808 468.458 22.632C467.45 24.408 466.082 25.944 464.354 27.24C462.626 28.488 460.634 29.496 458.378 30.264C456.122 31.032 453.77 31.608 451.322 31.992L469.466 51ZM439.37 8.088C439.37 7.8 439.25 7.536 439.01 7.296C438.818 7.056 438.554 6.936 438.218 6.936H429.146V25.8H438.218C438.986 25.8 439.37 25.416 439.37 24.648V8.088ZM478.234 51H471.394L490.546 0.599997H528.922L548.074 51H509.842L506.098 41.28H481.906L478.234 51ZM484.354 34.944H503.722L494.002 9.384L484.354 34.944ZM633.083 51H609.755L592.763 32.208V51H554.459V0.599997H610.691C613.619 0.599997 616.451 0.959996 619.187 1.68C621.971 2.4 624.419 3.432 626.531 4.776C628.691 6.12 630.419 7.776 631.715 9.744C633.011 11.712 633.659 13.92 633.659 16.368C633.659 18.72 633.131 20.808 632.075 22.632C631.067 24.408 629.699 25.944 627.971 27.24C626.243 28.488 624.251 29.496 621.995 30.264C619.739 31.032 617.387 31.608 614.939 31.992L633.083 51ZM602.987 8.088C602.987 7.8 602.867 7.536 602.627 7.296C602.435 7.056 602.171 6.936 601.835 6.936H592.763V25.8H601.835C602.603 25.8 602.987 25.416 602.987 24.648V8.088ZM709.292 0.599997V6.936H677.756V22.56H709.292V28.968H677.756V44.664H709.292V51H640.1V0.599997H709.292Z" fill="white"/>
<path d="M-36.224 127.208C-36.56 127.208 -36.848 127.328 -37.088 127.568C-37.28 127.76 -37.376 128 -37.376 128.288V139.592H13.744V146H-75.248V134.12C-75.248 132.296 -74.912 130.568 -74.24 128.936C-73.52 127.304 -72.56 125.888 -71.36 124.688C-70.16 123.488 -68.744 122.552 -67.112 121.88C-65.48 121.16 -63.752 120.8 -61.928 120.8L-25.568 120.728C-25.28 120.728 -25.04 120.632 -24.848 120.44C-24.608 120.2 -24.488 119.936 -24.488 119.648V103.088C-24.488 102.8 -24.608 102.56 -24.848 102.368C-25.04 102.128 -25.28 102.008 -25.568 102.008H-36.224C-36.56 102.008 -36.848 102.128 -37.088 102.368C-37.28 102.56 -37.376 102.8 -37.376 103.088V111.296H-75.248C-75.152 109.472 -74.6 107.672 -73.592 105.896C-72.536 104.12 -71.336 102.56 -69.992 101.216C-67.304 98.528 -64.064 96.776 -60.272 95.96C-58.928 95.72 -57.656 95.6 -56.456 95.6H-7.424C-4.496 95.6 -1.76 96.008 0.784007 96.824C3.376 97.64 5.632 98.744 7.55201 100.136C9.472 101.528 10.984 103.184 12.088 105.104C13.192 107.024 13.744 109.112 13.744 111.368C13.744 113.72 13.192 115.88 12.088 117.848C10.984 119.768 9.472 121.424 7.55201 122.816C5.632 124.208 3.376 125.288 0.784007 126.056C-1.76 126.824 -4.496 127.208 -7.424 127.208H-36.224ZM92.1908 95.6C94.8308 95.6 97.3028 96.104 99.6068 97.112C101.959 98.12 103.999 99.488 105.727 101.216C107.455 102.944 108.823 104.984 109.831 107.336C110.839 109.64 111.343 112.112 111.343 114.752V126.704C111.343 129.344 110.839 131.84 109.831 134.192C108.823 136.496 107.455 138.536 105.727 140.312C103.999 142.04 101.959 143.432 99.6068 144.488C97.3028 145.496 94.8308 146 92.1908 146H41.3588C38.7188 146 36.2468 145.496 33.9428 144.488C31.6388 143.432 29.6228 142.04 27.8948 140.312C26.1668 138.536 24.7988 136.496 23.7908 134.192C22.7828 131.84 22.2788 129.344 22.2788 126.704V114.752C22.2788 112.112 22.7828 109.64 23.7908 107.336C24.7988 104.984 26.1668 102.944 27.8948 101.216C29.6228 99.488 31.6388 98.12 33.9428 97.112C36.2948 96.104 38.7908 95.6 41.4308 95.6H92.1908ZM60.4388 127.64L70.3028 101.936H62.0948C61.6148 101.936 61.2068 102.104 60.8708 102.44C60.5828 102.728 60.4388 103.088 60.4388 103.52V127.64ZM73.1108 112.88L62.8868 139.592H71.5268C71.9588 139.592 72.3188 139.448 72.6068 139.16C72.9428 138.824 73.1108 138.44 73.1108 138.008V112.88ZM160.018 127.208C159.682 127.208 159.394 127.328 159.154 127.568C158.962 127.76 158.866 128 158.866 128.288V139.592H209.986V146H120.994V134.12C120.994 132.296 121.33 130.568 122.002 128.936C122.722 127.304 123.682 125.888 124.882 124.688C126.082 123.488 127.498 122.552 129.13 121.88C130.762 121.16 132.49 120.8 134.314 120.8L170.674 120.728C170.962 120.728 171.202 120.632 171.394 120.44C171.634 120.2 171.754 119.936 171.754 119.648V103.088C171.754 102.8 171.634 102.56 171.394 102.368C171.202 102.128 170.962 102.008 170.674 102.008H160.018C159.682 102.008 159.394 102.128 159.154 102.368C158.962 102.56 158.866 102.8 158.866 103.088V111.296H120.994C121.09 109.472 121.642 107.672 122.65 105.896C123.706 104.12 124.906 102.56 126.25 101.216C128.938 98.528 132.178 96.776 135.97 95.96C137.314 95.72 138.586 95.6 139.786 95.6H188.818C191.746 95.6 194.482 96.008 197.026 96.824C199.618 97.64 201.874 98.744 203.794 100.136C205.714 101.528 207.226 103.184 208.33 105.104C209.434 107.024 209.986 109.112 209.986 111.368C209.986 113.72 209.434 115.88 208.33 117.848C207.226 119.768 205.714 121.424 203.794 122.816C201.874 124.208 199.618 125.288 197.026 126.056C194.482 126.824 191.746 127.208 188.818 127.208H160.018ZM306.361 115.328C306.361 116.288 306.169 117.224 305.785 118.136C305.401 119.048 305.065 119.936 304.777 120.8C305.065 121.664 305.401 122.552 305.785 123.464C306.169 124.376 306.361 125.312 306.361 126.272V126.848C306.361 129.536 305.857 132.032 304.849 134.336C303.889 136.64 302.545 138.656 300.817 140.384C299.089 142.112 297.049 143.48 294.697 144.488C292.393 145.496 289.921 146 287.281 146H236.665C235.465 146 234.193 145.88 232.849 145.64C229.057 144.824 225.817 143.072 223.129 140.384C221.785 139.04 220.585 137.48 219.529 135.704C218.521 133.928 217.969 132.128 217.873 130.304H255.457V138.512C255.457 139.28 255.841 139.664 256.609 139.664H267.337C268.105 139.664 268.489 139.28 268.489 138.512V125.12C268.489 124.352 268.105 123.968 267.337 123.968L249.409 124.04V117.56L267.337 117.632C268.105 117.632 268.489 117.248 268.489 116.48V103.088C268.489 102.8 268.369 102.536 268.129 102.296C267.937 102.056 267.673 101.936 267.337 101.936H256.609C255.841 101.936 255.457 102.32 255.457 103.088V111.296H217.873C217.969 109.472 218.521 107.672 219.529 105.896C220.585 104.12 221.785 102.56 223.129 101.216C225.817 98.528 229.057 96.776 232.849 95.96C234.193 95.72 235.465 95.6 236.665 95.6H287.281C289.921 95.6 292.393 96.104 294.697 97.112C297.049 98.12 299.089 99.488 300.817 101.216C302.545 102.944 303.889 104.96 304.849 107.264C305.857 109.568 306.361 112.064 306.361 114.752V115.328Z" fill="white"/>
<path d="M375.776 127.208C375.44 127.208 375.152 127.328 374.912 127.568C374.72 127.76 374.624 128 374.624 128.288V139.592H425.744V146H336.752V134.12C336.752 132.296 337.088 130.568 337.76 128.936C338.48 127.304 339.44 125.888 340.64 124.688C341.84 123.488 343.256 122.552 344.888 121.88C346.52 121.16 348.248 120.8 350.072 120.8L386.432 120.728C386.72 120.728 386.96 120.632 387.152 120.44C387.392 120.2 387.512 119.936 387.512 119.648V103.088C387.512 102.8 387.392 102.56 387.152 102.368C386.96 102.128 386.72 102.008 386.432 102.008H375.776C375.44 102.008 375.152 102.128 374.912 102.368C374.72 102.56 374.624 102.8 374.624 103.088V111.296H336.752C336.848 109.472 337.4 107.672 338.408 105.896C339.464 104.12 340.664 102.56 342.008 101.216C344.696 98.528 347.936 96.776 351.728 95.96C353.072 95.72 354.344 95.6 355.544 95.6H404.576C407.504 95.6 410.24 96.008 412.784 96.824C415.376 97.64 417.632 98.744 419.552 100.136C421.472 101.528 422.984 103.184 424.088 105.104C425.192 107.024 425.744 109.112 425.744 111.368C425.744 113.72 425.192 115.88 424.088 117.848C422.984 119.768 421.472 121.424 419.552 122.816C417.632 124.208 415.376 125.288 412.784 126.056C410.24 126.824 407.504 127.208 404.576 127.208H375.776ZM504.191 95.6C506.831 95.6 509.303 96.104 511.607 97.112C513.959 98.12 515.999 99.488 517.727 101.216C519.455 102.944 520.823 104.984 521.831 107.336C522.839 109.64 523.343 112.112 523.343 114.752V126.704C523.343 129.344 522.839 131.84 521.831 134.192C520.823 136.496 519.455 138.536 517.727 140.312C515.999 142.04 513.959 143.432 511.607 144.488C509.303 145.496 506.831 146 504.191 146H453.359C450.719 146 448.247 145.496 445.943 144.488C443.639 143.432 441.623 142.04 439.895 140.312C438.167 138.536 436.799 136.496 435.791 134.192C434.783 131.84 434.279 129.344 434.279 126.704V114.752C434.279 112.112 434.783 109.64 435.791 107.336C436.799 104.984 438.167 102.944 439.895 101.216C441.623 99.488 443.639 98.12 445.943 97.112C448.295 96.104 450.791 95.6 453.431 95.6H504.191ZM472.439 127.64L482.303 101.936H474.095C473.615 101.936 473.207 102.104 472.871 102.44C472.583 102.728 472.439 103.088 472.439 103.52V127.64ZM485.111 112.88L474.887 139.592H483.527C483.959 139.592 484.319 139.448 484.607 139.16C484.943 138.824 485.111 138.44 485.111 138.008V112.88ZM572.018 127.208C571.682 127.208 571.394 127.328 571.154 127.568C570.962 127.76 570.866 128 570.866 128.288V139.592H621.986V146H532.994V134.12C532.994 132.296 533.33 130.568 534.002 128.936C534.722 127.304 535.682 125.888 536.882 124.688C538.082 123.488 539.498 122.552 541.13 121.88C542.762 121.16 544.49 120.8 546.314 120.8L582.674 120.728C582.962 120.728 583.202 120.632 583.394 120.44C583.634 120.2 583.754 119.936 583.754 119.648V103.088C583.754 102.8 583.634 102.56 583.394 102.368C583.202 102.128 582.962 102.008 582.674 102.008H572.018C571.682 102.008 571.394 102.128 571.154 102.368C570.962 102.56 570.866 102.8 570.866 103.088V111.296H532.994C533.09 109.472 533.642 107.672 534.65 105.896C535.706 104.12 536.906 102.56 538.25 101.216C540.938 98.528 544.178 96.776 547.97 95.96C549.314 95.72 550.586 95.6 551.786 95.6H600.818C603.746 95.6 606.482 96.008 609.026 96.824C611.618 97.64 613.874 98.744 615.794 100.136C617.714 101.528 619.226 103.184 620.33 105.104C621.434 107.024 621.986 109.112 621.986 111.368C621.986 113.72 621.434 115.88 620.33 117.848C619.226 119.768 617.714 121.424 615.794 122.816C613.874 124.208 611.618 125.288 609.026 126.056C606.482 126.824 603.746 127.208 600.818 127.208H572.018ZM718.361 115.328C718.361 116.288 718.169 117.224 717.785 118.136C717.401 119.048 717.065 119.936 716.777 120.8C717.065 121.664 717.401 122.552 717.785 123.464C718.169 124.376 718.361 125.312 718.361 126.272V126.848C718.361 129.536 717.857 132.032 716.849 134.336C715.889 136.64 714.545 138.656 712.817 140.384C711.089 142.112 709.049 143.48 706.697 144.488C704.393 145.496 701.921 146 699.281 146H648.665C647.465 146 646.193 145.88 644.849 145.64C641.057 144.824 637.817 143.072 635.129 140.384C633.785 139.04 632.585 137.48 631.529 135.704C630.521 133.928 629.969 132.128 629.873 130.304H667.457V138.512C667.457 139.28 667.841 139.664 668.609 139.664H679.337C680.105 139.664 680.489 139.28 680.489 138.512V125.12C680.489 124.352 680.105 123.968 679.337 123.968L661.409 124.04V117.56L679.337 117.632C680.105 117.632 680.489 117.248 680.489 116.48V103.088C680.489 102.8 680.369 102.536 680.129 102.296C679.937 102.056 679.673 101.936 679.337 101.936H668.609C667.841 101.936 667.457 102.32 667.457 103.088V111.296H629.873C629.969 109.472 630.521 107.672 631.529 105.896C632.585 104.12 633.785 102.56 635.129 101.216C637.817 98.528 641.057 96.776 644.849 95.96C646.193 95.72 647.465 95.6 648.665 95.6H699.281C701.921 95.6 704.393 96.104 706.697 97.112C709.049 98.12 711.089 99.488 712.817 101.216C714.545 102.944 715.889 104.96 716.849 107.264C717.857 109.568 718.361 112.064 718.361 114.752V115.328Z" fill="white"/>
<path d="M-129.096 241C-131.736 241 -134.232 240.496 -136.584 239.488C-138.888 238.48 -140.928 237.112 -142.704 235.384C-144.432 233.608 -145.8 231.568 -146.808 229.264C-147.816 226.912 -148.32 224.416 -148.32 221.776V209.752C-148.32 207.112 -147.816 204.64 -146.808 202.336C-145.8 199.984 -144.432 197.944 -142.704 196.216C-140.976 194.488 -138.96 193.12 -136.656 192.112C-134.304 191.104 -131.808 190.6 -129.168 190.6H-79.416C-76.776 190.6 -74.304 191.104 -72 192.112C-69.696 193.072 -67.68 194.416 -65.952 196.144C-64.224 197.824 -62.856 199.816 -61.848 202.12C-60.84 204.424 -60.312 206.896 -60.264 209.536H-97.992V198.088C-97.992 197.32 -98.376 196.936 -99.144 196.936H-109.44C-110.208 196.936 -110.592 197.32 -110.592 198.088V233.512C-110.592 234.28 -110.208 234.664 -109.44 234.664H-99.144C-98.376 234.664 -97.992 234.28 -97.992 233.512V222.136H-60.264C-60.312 224.728 -60.864 227.176 -61.92 229.48C-62.928 231.736 -64.296 233.728 -66.024 235.456C-67.752 237.184 -69.768 238.552 -72.072 239.56C-74.376 240.52 -76.824 241 -79.416 241H-129.096ZM14.6239 190.6C17.2639 190.6 19.7359 191.104 22.0399 192.112C24.3439 193.12 26.3599 194.488 28.0879 196.216C29.8159 197.944 31.1839 199.96 32.1919 202.264C33.1999 204.568 33.7039 207.064 33.7039 209.752V221.776C33.7039 224.416 33.1999 226.912 32.1919 229.264C31.1839 231.568 29.8159 233.608 28.0879 235.384C26.3599 237.112 24.3439 238.48 22.0399 239.488C19.7359 240.496 17.2639 241 14.6239 241H-36.3521C-38.9921 240.952 -41.4881 240.424 -43.8401 239.416C-46.1441 238.408 -48.1601 237.04 -49.8881 235.312C-51.6161 233.584 -52.9841 231.568 -53.9921 229.264C-55.0001 226.912 -55.5041 224.416 -55.5041 221.776V209.752C-55.5041 207.112 -55.0001 204.64 -53.9921 202.336C-52.9841 199.984 -51.6161 197.944 -49.8881 196.216C-48.1601 194.488 -46.1441 193.12 -43.8401 192.112C-41.4881 191.104 -38.9921 190.6 -36.3521 190.6H14.6239ZM-4.67212 198.016C-4.67212 197.728 -4.79212 197.488 -5.03212 197.296C-5.22412 197.056 -5.48812 196.936 -5.82412 196.936H-16.1201C-16.4561 196.936 -16.7441 197.056 -16.9841 197.296C-17.1761 197.488 -17.2721 197.728 -17.2721 198.016V233.584C-17.2721 233.872 -17.1761 234.136 -16.9841 234.376C-16.7441 234.568 -16.4561 234.664 -16.1201 234.664H-5.82412C-5.48812 234.664 -5.22412 234.568 -5.03212 234.376C-4.79212 234.136 -4.67212 233.872 -4.67212 233.584V198.016ZM141.369 190.6L160.593 241H122.217L106.377 199.384L100.041 216.16L109.473 241H71.0966L55.2566 199.384L39.4886 241H32.7926L51.9446 190.6H90.3206L96.6566 207.376L103.065 190.6H141.369ZM164.725 190.6H202.453V241H164.725V190.6ZM297.92 190.6V241H260.192V240.928L247.592 208.312V241H209.936V190.6H247.592L260.192 223.216V190.6H297.92ZM323.156 241C320.516 241 318.02 240.496 315.668 239.488C313.364 238.48 311.324 237.112 309.548 235.384C307.82 233.608 306.452 231.568 305.444 229.264C304.436 226.912 303.932 224.416 303.932 221.776V209.752C303.932 207.112 304.436 204.64 305.444 202.336C306.452 199.984 307.82 197.944 309.548 196.216C311.276 194.488 313.292 193.12 315.596 192.112C317.948 191.104 320.444 190.6 323.084 190.6H372.836C375.476 190.6 377.948 191.104 380.252 192.112C382.556 193.072 384.572 194.416 386.3 196.144C388.028 197.824 389.396 199.816 390.404 202.12C391.412 204.424 391.94 206.896 391.988 209.536H354.26V198.088C354.26 197.32 353.876 196.936 353.108 196.936H342.812C342.044 196.936 341.66 197.32 341.66 198.088V233.512C341.66 234.28 342.044 234.664 342.812 234.664H353.108C353.876 234.664 354.26 234.28 354.26 233.512V223.216C354.26 222.928 354.14 222.688 353.9 222.496C353.708 222.256 353.444 222.136 353.108 222.136H347.996V215.728H391.916V222.136C391.916 224.728 391.388 227.176 390.332 229.48C389.324 231.736 387.956 233.728 386.228 235.456C384.5 237.184 382.484 238.552 380.18 239.56C377.876 240.52 375.428 241 372.836 241H323.156ZM425.346 196.216C427.026 194.488 429.018 193.12 431.322 192.112C433.626 191.104 436.074 190.6 438.666 190.6H489.138C489.714 190.6 490.29 190.624 490.866 190.672C491.442 190.72 491.994 190.792 492.522 190.888C494.394 191.272 496.146 191.944 497.778 192.904C499.458 193.816 500.946 194.968 502.242 196.36C503.586 197.704 504.714 199.24 505.626 200.968C506.538 202.648 507.162 204.424 507.498 206.296H470.13V198.088C470.13 197.32 469.746 196.936 468.978 196.936H458.682C458.346 196.936 458.058 197.056 457.818 197.296C457.626 197.536 457.53 197.8 457.53 198.088V211.48C457.53 212.248 457.914 212.632 458.682 212.632H507.786C507.786 219.208 507.786 222.616 507.786 222.856C507.786 225.112 507.258 227.368 506.202 229.624C505.146 231.832 503.826 233.752 502.242 235.384C500.514 237.112 498.498 238.48 496.194 239.488C493.938 240.496 491.49 241 488.85 241H438.162C436.914 241 435.81 240.904 434.85 240.712C432.978 240.328 431.202 239.68 429.522 238.768C427.842 237.808 426.33 236.656 424.986 235.312C423.69 233.92 422.586 232.384 421.674 230.704C420.81 228.976 420.21 227.176 419.874 225.304H457.53V233.512C457.53 234.28 457.914 234.664 458.682 234.664H468.978C469.314 234.664 469.578 234.544 469.77 234.304C470.01 234.064 470.13 233.8 470.13 233.512V220.12C470.13 219.352 469.746 218.968 468.978 218.968H419.802V208.744C419.946 206.296 420.498 204.016 421.458 201.904C422.418 199.744 423.714 197.848 425.346 196.216ZM583.241 190.6C585.881 190.6 588.353 191.104 590.657 192.112C592.961 193.12 594.977 194.488 596.705 196.216C598.433 197.944 599.801 199.96 600.809 202.264C601.817 204.568 602.321 207.064 602.321 209.752V221.776C602.321 224.416 601.817 226.912 600.809 229.264C599.801 231.568 598.433 233.608 596.705 235.384C594.977 237.112 592.961 238.48 590.657 239.488C588.353 240.496 585.881 241 583.241 241H532.265C529.625 240.952 527.129 240.424 524.777 239.416C522.473 238.408 520.457 237.04 518.729 235.312C517.001 233.584 515.633 231.568 514.625 229.264C513.617 226.912 513.113 224.416 513.113 221.776V209.752C513.113 207.112 513.617 204.64 514.625 202.336C515.633 199.984 517.001 197.944 518.729 196.216C520.457 194.488 522.473 193.12 524.777 192.112C527.129 191.104 529.625 190.6 532.265 190.6H583.241ZM563.945 198.016C563.945 197.728 563.825 197.488 563.585 197.296C563.393 197.056 563.129 196.936 562.793 196.936H552.497C552.161 196.936 551.873 197.056 551.633 197.296C551.441 197.488 551.345 197.728 551.345 198.016V233.584C551.345 233.872 551.441 234.136 551.633 234.376C551.873 234.568 552.161 234.664 552.497 234.664H562.793C563.129 234.664 563.393 234.568 563.585 234.376C563.825 234.136 563.945 233.872 563.945 233.584V198.016ZM678.163 190.6C680.803 190.6 683.275 191.104 685.579 192.112C687.883 193.12 689.899 194.488 691.627 196.216C693.355 197.944 694.723 199.96 695.731 202.264C696.739 204.568 697.243 207.064 697.243 209.752V221.776C697.243 224.416 696.739 226.912 695.731 229.264C694.723 231.568 693.355 233.608 691.627 235.384C689.899 237.112 687.883 238.48 685.579 239.488C683.275 240.496 680.803 241 678.163 241H627.187C624.547 240.952 622.051 240.424 619.699 239.416C617.395 238.408 615.379 237.04 613.651 235.312C611.923 233.584 610.555 231.568 609.547 229.264C608.539 226.912 608.035 224.416 608.035 221.776V209.752C608.035 207.112 608.539 204.64 609.547 202.336C610.555 199.984 611.923 197.944 613.651 196.216C615.379 194.488 617.395 193.12 619.699 192.112C622.051 191.104 624.547 190.6 627.187 190.6H678.163ZM658.867 198.016C658.867 197.728 658.747 197.488 658.507 197.296C658.315 197.056 658.051 196.936 657.715 196.936H647.419C647.083 196.936 646.795 197.056 646.555 197.296C646.363 197.488 646.267 197.728 646.267 198.016V233.584C646.267 233.872 646.363 234.136 646.555 234.376C646.795 234.568 647.083 234.664 647.419 234.664H657.715C658.051 234.664 658.315 234.568 658.507 234.376C658.747 234.136 658.867 233.872 658.867 233.584V198.016ZM791.373 190.6V241H753.645V240.928L741.045 208.312V241H703.389V190.6H741.045L753.645 223.216V190.6H791.373Z" fill="white"/>
<path d="M9.448 285.6V291.936H-22.088V307.56H9.448V313.968H-22.088V336H-59.744V285.6H9.448ZM65.8133 285.6H103.469V316.92C103.469 319.56 102.965 322.032 101.957 324.336C100.949 326.64 99.5813 328.656 97.8533 330.384C96.1253 332.112 94.0853 333.48 91.7333 334.488C89.4293 335.496 86.9573 336 84.3173 336H34.6373C31.9973 336 29.5013 335.496 27.1493 334.488C24.8453 333.48 22.8293 332.112 21.1013 330.384C19.3733 328.656 18.0053 326.64 16.9973 324.336C15.9893 321.984 15.4853 319.488 15.4853 316.848V285.6H53.0693V328.512C53.0693 329.28 53.4533 329.664 54.2213 329.664H64.7333C65.0213 329.664 65.2613 329.568 65.4533 329.376C65.6933 329.136 65.8133 328.848 65.8133 328.512V285.6ZM183.897 285.6V291.936H165.033V336H127.305V291.936H108.441V285.6H183.897ZM239.204 285.6H276.86V316.92C276.86 319.56 276.356 322.032 275.348 324.336C274.34 326.64 272.972 328.656 271.244 330.384C269.516 332.112 267.476 333.48 265.124 334.488C262.82 335.496 260.348 336 257.708 336H208.028C205.388 336 202.892 335.496 200.54 334.488C198.236 333.48 196.22 332.112 194.492 330.384C192.764 328.656 191.396 326.64 190.388 324.336C189.38 321.984 188.876 319.488 188.876 316.848V285.6H226.46V328.512C226.46 329.28 226.844 329.664 227.612 329.664H238.124C238.412 329.664 238.652 329.568 238.844 329.376C239.084 329.136 239.204 328.848 239.204 328.512V285.6ZM361.232 336H337.904L320.912 317.208V336H282.608V285.6H338.84C341.768 285.6 344.6 285.96 347.336 286.68C350.12 287.4 352.568 288.432 354.68 289.776C356.84 291.12 358.568 292.776 359.864 294.744C361.16 296.712 361.808 298.92 361.808 301.368C361.808 303.72 361.28 305.808 360.224 307.632C359.216 309.408 357.848 310.944 356.12 312.24C354.392 313.488 352.4 314.496 350.144 315.264C347.888 316.032 345.536 316.608 343.088 316.992L361.232 336ZM331.136 293.088C331.136 292.8 331.016 292.536 330.776 292.296C330.584 292.056 330.32 291.936 329.984 291.936H320.912V310.8H329.984C330.752 310.8 331.136 310.416 331.136 309.648V293.088ZM437.44 285.6V291.936H405.904V307.56H437.44V313.968H405.904V329.664H437.44V336H368.248V285.6H437.44ZM551.717 285.6V336H513.989V335.928L501.389 303.312V336H463.733V285.6H501.389L513.989 318.216V285.6H551.717ZM627.425 285.6V291.936H595.889V307.56H627.425V313.968H595.889V336H558.233V285.6H627.425ZM706.038 285.6V291.936H687.174V336H649.446V291.936H630.582V285.6H706.038Z" fill="white"/>
<path d="M-57.92 386.216C-56.24 384.488 -54.248 383.12 -51.944 382.112C-49.64 381.104 -47.192 380.6 -44.6 380.6H5.872C6.44801 380.6 7.02401 380.624 7.60001 380.672C8.176 380.72 8.728 380.792 9.25601 380.888C11.128 381.272 12.88 381.944 14.512 382.904C16.192 383.816 17.68 384.968 18.976 386.36C20.32 387.704 21.448 389.24 22.36 390.968C23.272 392.648 23.896 394.424 24.232 396.296H-13.136V388.088C-13.136 387.32 -13.52 386.936 -14.288 386.936H-24.584C-24.92 386.936 -25.208 387.056 -25.448 387.296C-25.64 387.536 -25.736 387.8 -25.736 388.088V401.48C-25.736 402.248 -25.352 402.632 -24.584 402.632H24.52C24.52 409.208 24.52 412.616 24.52 412.856C24.52 415.112 23.992 417.368 22.936 419.624C21.88 421.832 20.56 423.752 18.976 425.384C17.248 427.112 15.232 428.48 12.928 429.488C10.672 430.496 8.224 431 5.58401 431H-45.104C-46.352 431 -47.456 430.904 -48.416 430.712C-50.288 430.328 -52.064 429.68 -53.744 428.768C-55.424 427.808 -56.936 426.656 -58.28 425.312C-59.576 423.92 -60.68 422.384 -61.592 420.704C-62.456 418.976 -63.056 417.176 -63.392 415.304H-25.736V423.512C-25.736 424.28 -25.352 424.664 -24.584 424.664H-14.288C-13.952 424.664 -13.688 424.544 -13.496 424.304C-13.256 424.064 -13.136 423.8 -13.136 423.512V410.12C-13.136 409.352 -13.52 408.968 -14.288 408.968H-63.464V398.744C-63.32 396.296 -62.768 394.016 -61.808 391.904C-60.848 389.744 -59.552 387.848 -57.92 386.216ZM80.3914 380.6H118.047V411.92C118.047 414.56 117.543 417.032 116.535 419.336C115.527 421.64 114.159 423.656 112.431 425.384C110.703 427.112 108.663 428.48 106.311 429.488C104.007 430.496 101.535 431 98.8954 431H49.2154C46.5754 431 44.0794 430.496 41.7274 429.488C39.4234 428.48 37.4074 427.112 35.6794 425.384C33.9514 423.656 32.5834 421.64 31.5754 419.336C30.5674 416.984 30.0634 414.488 30.0634 411.848V380.6H67.6474V423.512C67.6474 424.28 68.0314 424.664 68.7994 424.664H79.3114C79.5994 424.664 79.8394 424.568 80.0314 424.376C80.2714 424.136 80.3914 423.848 80.3914 423.512V380.6ZM162.59 412.136V431H124.286V380.6H180.734C183.95 380.6 186.926 380.984 189.662 381.752C192.446 382.52 194.846 383.6 196.862 384.992C198.878 386.336 200.462 387.992 201.614 389.96C202.766 391.88 203.342 394.016 203.342 396.368C203.342 398.72 202.766 400.88 201.614 402.848C200.462 404.768 198.902 406.424 196.934 407.816C195.014 409.208 192.734 410.288 190.094 411.056C187.502 411.776 184.742 412.136 181.814 412.136H162.59ZM162.59 387.008V405.8H171.662C171.95 405.8 172.214 405.704 172.454 405.512C172.694 405.272 172.814 404.984 172.814 404.648V388.088C172.814 387.8 172.694 387.56 172.454 387.368C172.214 387.128 171.95 387.008 171.662 387.008H162.59ZM275.886 380.6V386.936H244.35V402.56H275.886V408.968H244.35V424.664H275.886V431H206.694V380.6H275.886ZM362.099 431H338.771L321.779 412.208V431H283.475V380.6H339.707C342.635 380.6 345.467 380.96 348.203 381.68C350.987 382.4 353.435 383.432 355.547 384.776C357.707 386.12 359.435 387.776 360.731 389.744C362.027 391.712 362.675 393.92 362.675 396.368C362.675 398.72 362.147 400.808 361.091 402.632C360.083 404.408 358.715 405.944 356.987 407.24C355.259 408.488 353.267 409.496 351.011 410.264C348.755 411.032 346.403 411.608 343.955 411.992L362.099 431ZM332.003 388.088C332.003 387.8 331.883 387.536 331.643 387.296C331.451 387.056 331.187 386.936 330.851 386.936H321.779V405.8H330.851C331.619 405.8 332.003 405.416 332.003 404.648V388.088ZM469.466 431H446.138L429.146 412.208V431H390.842V380.6H447.074C450.002 380.6 452.834 380.96 455.57 381.68C458.354 382.4 460.802 383.432 462.914 384.776C465.074 386.12 466.802 387.776 468.098 389.744C469.394 391.712 470.042 393.92 470.042 396.368C470.042 398.72 469.514 400.808 468.458 402.632C467.45 404.408 466.082 405.944 464.354 407.24C462.626 408.488 460.634 409.496 458.378 410.264C456.122 411.032 453.77 411.608 451.322 411.992L469.466 431ZM439.37 388.088C439.37 387.8 439.25 387.536 439.01 387.296C438.818 387.056 438.554 386.936 438.218 386.936H429.146V405.8H438.218C438.986 405.8 439.37 405.416 439.37 404.648V388.088ZM478.234 431H471.394L490.546 380.6H528.922L548.074 431H509.842L506.098 421.28H481.906L478.234 431ZM484.354 414.944H503.722L494.002 389.384L484.354 414.944ZM633.083 431H609.755L592.763 412.208V431H554.459V380.6H610.691C613.619 380.6 616.451 380.96 619.187 381.68C621.971 382.4 624.419 383.432 626.531 384.776C628.691 386.12 630.419 387.776 631.715 389.744C633.011 391.712 633.659 393.92 633.659 396.368C633.659 398.72 633.131 400.808 632.075 402.632C631.067 404.408 629.699 405.944 627.971 407.24C626.243 408.488 624.251 409.496 621.995 410.264C619.739 411.032 617.387 411.608 614.939 411.992L633.083 431ZM602.987 388.088C602.987 387.8 602.867 387.536 602.627 387.296C602.435 387.056 602.171 386.936 601.835 386.936H592.763V405.8H601.835C602.603 405.8 602.987 405.416 602.987 404.648V388.088ZM709.292 380.6V386.936H677.756V402.56H709.292V408.968H677.756V424.664H709.292V431H640.1V380.6H709.292Z" fill="white"/>
<path d="M-36.224 507.208C-36.56 507.208 -36.848 507.328 -37.088 507.568C-37.28 507.76 -37.376 508 -37.376 508.288V519.592H13.744V526H-75.248V514.12C-75.248 512.296 -74.912 510.568 -74.24 508.936C-73.52 507.304 -72.56 505.888 -71.36 504.688C-70.16 503.488 -68.744 502.552 -67.112 501.88C-65.48 501.16 -63.752 500.8 -61.928 500.8L-25.568 500.728C-25.28 500.728 -25.04 500.632 -24.848 500.44C-24.608 500.2 -24.488 499.936 -24.488 499.648V483.088C-24.488 482.8 -24.608 482.56 -24.848 482.368C-25.04 482.128 -25.28 482.008 -25.568 482.008H-36.224C-36.56 482.008 -36.848 482.128 -37.088 482.368C-37.28 482.56 -37.376 482.8 -37.376 483.088V491.296H-75.248C-75.152 489.472 -74.6 487.672 -73.592 485.896C-72.536 484.12 -71.336 482.56 -69.992 481.216C-67.304 478.528 -64.064 476.776 -60.272 475.96C-58.928 475.72 -57.656 475.6 -56.456 475.6H-7.424C-4.496 475.6 -1.76 476.008 0.784007 476.824C3.376 477.64 5.632 478.744 7.55201 480.136C9.472 481.528 10.984 483.184 12.088 485.104C13.192 487.024 13.744 489.112 13.744 491.368C13.744 493.72 13.192 495.88 12.088 497.848C10.984 499.768 9.472 501.424 7.55201 502.816C5.632 504.208 3.376 505.288 0.784007 506.056C-1.76 506.824 -4.496 507.208 -7.424 507.208H-36.224ZM92.1908 475.6C94.8308 475.6 97.3028 476.104 99.6068 477.112C101.959 478.12 103.999 479.488 105.727 481.216C107.455 482.944 108.823 484.984 109.831 487.336C110.839 489.64 111.343 492.112 111.343 494.752V506.704C111.343 509.344 110.839 511.84 109.831 514.192C108.823 516.496 107.455 518.536 105.727 520.312C103.999 522.04 101.959 523.432 99.6068 524.488C97.3028 525.496 94.8308 526 92.1908 526H41.3588C38.7188 526 36.2468 525.496 33.9428 524.488C31.6388 523.432 29.6228 522.04 27.8948 520.312C26.1668 518.536 24.7988 516.496 23.7908 514.192C22.7828 511.84 22.2788 509.344 22.2788 506.704V494.752C22.2788 492.112 22.7828 489.64 23.7908 487.336C24.7988 484.984 26.1668 482.944 27.8948 481.216C29.6228 479.488 31.6388 478.12 33.9428 477.112C36.2948 476.104 38.7908 475.6 41.4308 475.6H92.1908ZM60.4388 507.64L70.3028 481.936H62.0948C61.6148 481.936 61.2068 482.104 60.8708 482.44C60.5828 482.728 60.4388 483.088 60.4388 483.52V507.64ZM73.1108 492.88L62.8868 519.592H71.5268C71.9588 519.592 72.3188 519.448 72.6068 519.16C72.9428 518.824 73.1108 518.44 73.1108 518.008V492.88ZM160.018 507.208C159.682 507.208 159.394 507.328 159.154 507.568C158.962 507.76 158.866 508 158.866 508.288V519.592H209.986V526H120.994V514.12C120.994 512.296 121.33 510.568 122.002 508.936C122.722 507.304 123.682 505.888 124.882 504.688C126.082 503.488 127.498 502.552 129.13 501.88C130.762 501.16 132.49 500.8 134.314 500.8L170.674 500.728C170.962 500.728 171.202 500.632 171.394 500.44C171.634 500.2 171.754 499.936 171.754 499.648V483.088C171.754 482.8 171.634 482.56 171.394 482.368C171.202 482.128 170.962 482.008 170.674 482.008H160.018C159.682 482.008 159.394 482.128 159.154 482.368C158.962 482.56 158.866 482.8 158.866 483.088V491.296H120.994C121.09 489.472 121.642 487.672 122.65 485.896C123.706 484.12 124.906 482.56 126.25 481.216C128.938 478.528 132.178 476.776 135.97 475.96C137.314 475.72 138.586 475.6 139.786 475.6H188.818C191.746 475.6 194.482 476.008 197.026 476.824C199.618 477.64 201.874 478.744 203.794 480.136C205.714 481.528 207.226 483.184 208.33 485.104C209.434 487.024 209.986 489.112 209.986 491.368C209.986 493.72 209.434 495.88 208.33 497.848C207.226 499.768 205.714 501.424 203.794 502.816C201.874 504.208 199.618 505.288 197.026 506.056C194.482 506.824 191.746 507.208 188.818 507.208H160.018ZM306.361 495.328C306.361 496.288 306.169 497.224 305.785 498.136C305.401 499.048 305.065 499.936 304.777 500.8C305.065 501.664 305.401 502.552 305.785 503.464C306.169 504.376 306.361 505.312 306.361 506.272V506.848C306.361 509.536 305.857 512.032 304.849 514.336C303.889 516.64 302.545 518.656 300.817 520.384C299.089 522.112 297.049 523.48 294.697 524.488C292.393 525.496 289.921 526 287.281 526H236.665C235.465 526 234.193 525.88 232.849 525.64C229.057 524.824 225.817 523.072 223.129 520.384C221.785 519.04 220.585 517.48 219.529 515.704C218.521 513.928 217.969 512.128 217.873 510.304H255.457V518.512C255.457 519.28 255.841 519.664 256.609 519.664H267.337C268.105 519.664 268.489 519.28 268.489 518.512V505.12C268.489 504.352 268.105 503.968 267.337 503.968L249.409 504.04V497.56L267.337 497.632C268.105 497.632 268.489 497.248 268.489 496.48V483.088C268.489 482.8 268.369 482.536 268.129 482.296C267.937 482.056 267.673 481.936 267.337 481.936H256.609C255.841 481.936 255.457 482.32 255.457 483.088V491.296H217.873C217.969 489.472 218.521 487.672 219.529 485.896C220.585 484.12 221.785 482.56 223.129 481.216C225.817 478.528 229.057 476.776 232.849 475.96C234.193 475.72 235.465 475.6 236.665 475.6H287.281C289.921 475.6 292.393 476.104 294.697 477.112C297.049 478.12 299.089 479.488 300.817 481.216C302.545 482.944 303.889 484.96 304.849 487.264C305.857 489.568 306.361 492.064 306.361 494.752V495.328Z" fill="white"/>
<path d="M375.776 507.208C375.44 507.208 375.152 507.328 374.912 507.568C374.72 507.76 374.624 508 374.624 508.288V519.592H425.744V526H336.752V514.12C336.752 512.296 337.088 510.568 337.76 508.936C338.48 507.304 339.44 505.888 340.64 504.688C341.84 503.488 343.256 502.552 344.888 501.88C346.52 501.16 348.248 500.8 350.072 500.8L386.432 500.728C386.72 500.728 386.96 500.632 387.152 500.44C387.392 500.2 387.512 499.936 387.512 499.648V483.088C387.512 482.8 387.392 482.56 387.152 482.368C386.96 482.128 386.72 482.008 386.432 482.008H375.776C375.44 482.008 375.152 482.128 374.912 482.368C374.72 482.56 374.624 482.8 374.624 483.088V491.296H336.752C336.848 489.472 337.4 487.672 338.408 485.896C339.464 484.12 340.664 482.56 342.008 481.216C344.696 478.528 347.936 476.776 351.728 475.96C353.072 475.72 354.344 475.6 355.544 475.6H404.576C407.504 475.6 410.24 476.008 412.784 476.824C415.376 477.64 417.632 478.744 419.552 480.136C421.472 481.528 422.984 483.184 424.088 485.104C425.192 487.024 425.744 489.112 425.744 491.368C425.744 493.72 425.192 495.88 424.088 497.848C422.984 499.768 421.472 501.424 419.552 502.816C417.632 504.208 415.376 505.288 412.784 506.056C410.24 506.824 407.504 507.208 404.576 507.208H375.776ZM504.191 475.6C506.831 475.6 509.303 476.104 511.607 477.112C513.959 478.12 515.999 479.488 517.727 481.216C519.455 482.944 520.823 484.984 521.831 487.336C522.839 489.64 523.343 492.112 523.343 494.752V506.704C523.343 509.344 522.839 511.84 521.831 514.192C520.823 516.496 519.455 518.536 517.727 520.312C515.999 522.04 513.959 523.432 511.607 524.488C509.303 525.496 506.831 526 504.191 526H453.359C450.719 526 448.247 525.496 445.943 524.488C443.639 523.432 441.623 522.04 439.895 520.312C438.167 518.536 436.799 516.496 435.791 514.192C434.783 511.84 434.279 509.344 434.279 506.704V494.752C434.279 492.112 434.783 489.64 435.791 487.336C436.799 484.984 438.167 482.944 439.895 481.216C441.623 479.488 443.639 478.12 445.943 477.112C448.295 476.104 450.791 475.6 453.431 475.6H504.191ZM472.439 507.64L482.303 481.936H474.095C473.615 481.936 473.207 482.104 472.871 482.44C472.583 482.728 472.439 483.088 472.439 483.52V507.64ZM485.111 492.88L474.887 519.592H483.527C483.959 519.592 484.319 519.448 484.607 519.16C484.943 518.824 485.111 518.44 485.111 518.008V492.88ZM572.018 507.208C571.682 507.208 571.394 507.328 571.154 507.568C570.962 507.76 570.866 508 570.866 508.288V519.592H621.986V526H532.994V514.12C532.994 512.296 533.33 510.568 534.002 508.936C534.722 507.304 535.682 505.888 536.882 504.688C538.082 503.488 539.498 502.552 541.13 501.88C542.762 501.16 544.49 500.8 546.314 500.8L582.674 500.728C582.962 500.728 583.202 500.632 583.394 500.44C583.634 500.2 583.754 499.936 583.754 499.648V483.088C583.754 482.8 583.634 482.56 583.394 482.368C583.202 482.128 582.962 482.008 582.674 482.008H572.018C571.682 482.008 571.394 482.128 571.154 482.368C570.962 482.56 570.866 482.8 570.866 483.088V491.296H532.994C533.09 489.472 533.642 487.672 534.65 485.896C535.706 484.12 536.906 482.56 538.25 481.216C540.938 478.528 544.178 476.776 547.97 475.96C549.314 475.72 550.586 475.6 551.786 475.6H600.818C603.746 475.6 606.482 476.008 609.026 476.824C611.618 477.64 613.874 478.744 615.794 480.136C617.714 481.528 619.226 483.184 620.33 485.104C621.434 487.024 621.986 489.112 621.986 491.368C621.986 493.72 621.434 495.88 620.33 497.848C619.226 499.768 617.714 501.424 615.794 502.816C613.874 504.208 611.618 505.288 609.026 506.056C606.482 506.824 603.746 507.208 600.818 507.208H572.018ZM718.361 495.328C718.361 496.288 718.169 497.224 717.785 498.136C717.401 499.048 717.065 499.936 716.777 500.8C717.065 501.664 717.401 502.552 717.785 503.464C718.169 504.376 718.361 505.312 718.361 506.272V506.848C718.361 509.536 717.857 512.032 716.849 514.336C715.889 516.64 714.545 518.656 712.817 520.384C711.089 522.112 709.049 523.48 706.697 524.488C704.393 525.496 701.921 526 699.281 526H648.665C647.465 526 646.193 525.88 644.849 525.64C641.057 524.824 637.817 523.072 635.129 520.384C633.785 519.04 632.585 517.48 631.529 515.704C630.521 513.928 629.969 512.128 629.873 510.304H667.457V518.512C667.457 519.28 667.841 519.664 668.609 519.664H679.337C680.105 519.664 680.489 519.28 680.489 518.512V505.12C680.489 504.352 680.105 503.968 679.337 503.968L661.409 504.04V497.56L679.337 497.632C680.105 497.632 680.489 497.248 680.489 496.48V483.088C680.489 482.8 680.369 482.536 680.129 482.296C679.937 482.056 679.673 481.936 679.337 481.936H668.609C667.841 481.936 667.457 482.32 667.457 483.088V491.296H629.873C629.969 489.472 630.521 487.672 631.529 485.896C632.585 484.12 633.785 482.56 635.129 481.216C637.817 478.528 641.057 476.776 644.849 475.96C646.193 475.72 647.465 475.6 648.665 475.6H699.281C701.921 475.6 704.393 476.104 706.697 477.112C709.049 478.12 711.089 479.488 712.817 481.216C714.545 482.944 715.889 484.96 716.849 487.264C717.857 489.568 718.361 492.064 718.361 494.752V495.328Z" fill="white"/>
<path d="M-129.096 621C-131.736 621 -134.232 620.496 -136.584 619.488C-138.888 618.48 -140.928 617.112 -142.704 615.384C-144.432 613.608 -145.8 611.568 -146.808 609.264C-147.816 606.912 -148.32 604.416 -148.32 601.776V589.752C-148.32 587.112 -147.816 584.64 -146.808 582.336C-145.8 579.984 -144.432 577.944 -142.704 576.216C-140.976 574.488 -138.96 573.12 -136.656 572.112C-134.304 571.104 -131.808 570.6 -129.168 570.6H-79.416C-76.776 570.6 -74.304 571.104 -72 572.112C-69.696 573.072 -67.68 574.416 -65.952 576.144C-64.224 577.824 -62.856 579.816 -61.848 582.12C-60.84 584.424 -60.312 586.896 -60.264 589.536H-97.992V578.088C-97.992 577.32 -98.376 576.936 -99.144 576.936H-109.44C-110.208 576.936 -110.592 577.32 -110.592 578.088V613.512C-110.592 614.28 -110.208 614.664 -109.44 614.664H-99.144C-98.376 614.664 -97.992 614.28 -97.992 613.512V602.136H-60.264C-60.312 604.728 -60.864 607.176 -61.92 609.48C-62.928 611.736 -64.296 613.728 -66.024 615.456C-67.752 617.184 -69.768 618.552 -72.072 619.56C-74.376 620.52 -76.824 621 -79.416 621H-129.096ZM14.6239 570.6C17.2639 570.6 19.7359 571.104 22.0399 572.112C24.3439 573.12 26.3599 574.488 28.0879 576.216C29.8159 577.944 31.1839 579.96 32.1919 582.264C33.1999 584.568 33.7039 587.064 33.7039 589.752V601.776C33.7039 604.416 33.1999 606.912 32.1919 609.264C31.1839 611.568 29.8159 613.608 28.0879 615.384C26.3599 617.112 24.3439 618.48 22.0399 619.488C19.7359 620.496 17.2639 621 14.6239 621H-36.3521C-38.9921 620.952 -41.4881 620.424 -43.8401 619.416C-46.1441 618.408 -48.1601 617.04 -49.8881 615.312C-51.6161 613.584 -52.9841 611.568 -53.9921 609.264C-55.0001 606.912 -55.5041 604.416 -55.5041 601.776V589.752C-55.5041 587.112 -55.0001 584.64 -53.9921 582.336C-52.9841 579.984 -51.6161 577.944 -49.8881 576.216C-48.1601 574.488 -46.1441 573.12 -43.8401 572.112C-41.4881 571.104 -38.9921 570.6 -36.3521 570.6H14.6239ZM-4.67212 578.016C-4.67212 577.728 -4.79212 577.488 -5.03212 577.296C-5.22412 577.056 -5.48812 576.936 -5.82412 576.936H-16.1201C-16.4561 576.936 -16.7441 577.056 -16.9841 577.296C-17.1761 577.488 -17.2721 577.728 -17.2721 578.016V613.584C-17.2721 613.872 -17.1761 614.136 -16.9841 614.376C-16.7441 614.568 -16.4561 614.664 -16.1201 614.664H-5.82412C-5.48812 614.664 -5.22412 614.568 -5.03212 614.376C-4.79212 614.136 -4.67212 613.872 -4.67212 613.584V578.016ZM141.369 570.6L160.593 621H122.217L106.377 579.384L100.041 596.16L109.473 621H71.0966L55.2566 579.384L39.4886 621H32.7926L51.9446 570.6H90.3206L96.6566 587.376L103.065 570.6H141.369ZM164.725 570.6H202.453V621H164.725V570.6ZM297.92 570.6V621H260.192V620.928L247.592 588.312V621H209.936V570.6H247.592L260.192 603.216V570.6H297.92ZM323.156 621C320.516 621 318.02 620.496 315.668 619.488C313.364 618.48 311.324 617.112 309.548 615.384C307.82 613.608 306.452 611.568 305.444 609.264C304.436 606.912 303.932 604.416 303.932 601.776V589.752C303.932 587.112 304.436 584.64 305.444 582.336C306.452 579.984 307.82 577.944 309.548 576.216C311.276 574.488 313.292 573.12 315.596 572.112C317.948 571.104 320.444 570.6 323.084 570.6H372.836C375.476 570.6 377.948 571.104 380.252 572.112C382.556 573.072 384.572 574.416 386.3 576.144C388.028 577.824 389.396 579.816 390.404 582.12C391.412 584.424 391.94 586.896 391.988 589.536H354.26V578.088C354.26 577.32 353.876 576.936 353.108 576.936H342.812C342.044 576.936 341.66 577.32 341.66 578.088V613.512C341.66 614.28 342.044 614.664 342.812 614.664H353.108C353.876 614.664 354.26 614.28 354.26 613.512V603.216C354.26 602.928 354.14 602.688 353.9 602.496C353.708 602.256 353.444 602.136 353.108 602.136H347.996V595.728H391.916V602.136C391.916 604.728 391.388 607.176 390.332 609.48C389.324 611.736 387.956 613.728 386.228 615.456C384.5 617.184 382.484 618.552 380.18 619.56C377.876 620.52 375.428 621 372.836 621H323.156ZM425.346 576.216C427.026 574.488 429.018 573.12 431.322 572.112C433.626 571.104 436.074 570.6 438.666 570.6H489.138C489.714 570.6 490.29 570.624 490.866 570.672C491.442 570.72 491.994 570.792 492.522 570.888C494.394 571.272 496.146 571.944 497.778 572.904C499.458 573.816 500.946 574.968 502.242 576.36C503.586 577.704 504.714 579.24 505.626 580.968C506.538 582.648 507.162 584.424 507.498 586.296H470.13V578.088C470.13 577.32 469.746 576.936 468.978 576.936H458.682C458.346 576.936 458.058 577.056 457.818 577.296C457.626 577.536 457.53 577.8 457.53 578.088V591.48C457.53 592.248 457.914 592.632 458.682 592.632H507.786C507.786 599.208 507.786 602.616 507.786 602.856C507.786 605.112 507.258 607.368 506.202 609.624C505.146 611.832 503.826 613.752 502.242 615.384C500.514 617.112 498.498 618.48 496.194 619.488C493.938 620.496 491.49 621 488.85 621H438.162C436.914 621 435.81 620.904 434.85 620.712C432.978 620.328 431.202 619.68 429.522 618.768C427.842 617.808 426.33 616.656 424.986 615.312C423.69 613.92 422.586 612.384 421.674 610.704C420.81 608.976 420.21 607.176 419.874 605.304H457.53V613.512C457.53 614.28 457.914 614.664 458.682 614.664H468.978C469.314 614.664 469.578 614.544 469.77 614.304C470.01 614.064 470.13 613.8 470.13 613.512V600.12C470.13 599.352 469.746 598.968 468.978 598.968H419.802V588.744C419.946 586.296 420.498 584.016 421.458 581.904C422.418 579.744 423.714 577.848 425.346 576.216ZM583.241 570.6C585.881 570.6 588.353 571.104 590.657 572.112C592.961 573.12 594.977 574.488 596.705 576.216C598.433 577.944 599.801 579.96 600.809 582.264C601.817 584.568 602.321 587.064 602.321 589.752V601.776C602.321 604.416 601.817 606.912 600.809 609.264C599.801 611.568 598.433 613.608 596.705 615.384C594.977 617.112 592.961 618.48 590.657 619.488C588.353 620.496 585.881 621 583.241 621H532.265C529.625 620.952 527.129 620.424 524.777 619.416C522.473 618.408 520.457 617.04 518.729 615.312C517.001 613.584 515.633 611.568 514.625 609.264C513.617 606.912 513.113 604.416 513.113 601.776V589.752C513.113 587.112 513.617 584.64 514.625 582.336C515.633 579.984 517.001 577.944 518.729 576.216C520.457 574.488 522.473 573.12 524.777 572.112C527.129 571.104 529.625 570.6 532.265 570.6H583.241ZM563.945 578.016C563.945 577.728 563.825 577.488 563.585 577.296C563.393 577.056 563.129 576.936 562.793 576.936H552.497C552.161 576.936 551.873 577.056 551.633 577.296C551.441 577.488 551.345 577.728 551.345 578.016V613.584C551.345 613.872 551.441 614.136 551.633 614.376C551.873 614.568 552.161 614.664 552.497 614.664H562.793C563.129 614.664 563.393 614.568 563.585 614.376C563.825 614.136 563.945 613.872 563.945 613.584V578.016ZM678.163 570.6C680.803 570.6 683.275 571.104 685.579 572.112C687.883 573.12 689.899 574.488 691.627 576.216C693.355 577.944 694.723 579.96 695.731 582.264C696.739 584.568 697.243 587.064 697.243 589.752V601.776C697.243 604.416 696.739 606.912 695.731 609.264C694.723 611.568 693.355 613.608 691.627 615.384C689.899 617.112 687.883 618.48 685.579 619.488C683.275 620.496 680.803 621 678.163 621H627.187C624.547 620.952 622.051 620.424 619.699 619.416C617.395 618.408 615.379 617.04 613.651 615.312C611.923 613.584 610.555 611.568 609.547 609.264C608.539 606.912 608.035 604.416 608.035 601.776V589.752C608.035 587.112 608.539 584.64 609.547 582.336C610.555 579.984 611.923 577.944 613.651 576.216C615.379 574.488 617.395 573.12 619.699 572.112C622.051 571.104 624.547 570.6 627.187 570.6H678.163ZM658.867 578.016C658.867 577.728 658.747 577.488 658.507 577.296C658.315 577.056 658.051 576.936 657.715 576.936H647.419C647.083 576.936 646.795 577.056 646.555 577.296C646.363 577.488 646.267 577.728 646.267 578.016V613.584C646.267 613.872 646.363 614.136 646.555 614.376C646.795 614.568 647.083 614.664 647.419 614.664H657.715C658.051 614.664 658.315 614.568 658.507 614.376C658.747 614.136 658.867 613.872 658.867 613.584V578.016ZM791.373 570.6V621H753.645V620.928L741.045 588.312V621H703.389V570.6H741.045L753.645 603.216V570.6H791.373Z" fill="white"/>
</svg>
